<svg width="60" height="60" viewBox="0 0 60 60" fill="none" xmlns="http://www.w3.org/2000/svg">
  <path d="M30 10C20 10 12 18 12 28C12 38 20 46 30 46C40 46 48 38 48 28" stroke="white" stroke-width="3" stroke-linecap="round"/>
  <path d="M15 35C15 35 20 40 30 40C40 40 45 35 45 35" stroke="white" stroke-width="2" stroke-linecap="round"/>
  <circle cx="22" cy="24" r="3" fill="white"/>
  <path d="M10 48C10 48 20 52 30 52C40 52 50 48 50 48" stroke="white" stroke-width="2" stroke-linecap="round"/>
  <path d="M8 44C8 44 18 48 30 48C42 48 52 44 52 44" stroke="white" stroke-width="1.5" stroke-linecap="round" opacity="0.7"/>
</svg>
