<svg width="101" height="109" viewBox="0 0 101 109" fill="none" xmlns="http://www.w3.org/2000/svg">
<path d="M50.4033 20.3127C68.3701 20.3127 83.7073 31.561 89.7637 47.3987C94.6379 47.569 98.5497 52.8908 98.5498 59.4309C98.5498 66.7185 95.7169 70.7655 91.8691 71.8909C88.3383 95.8742 71.1165 107.202 50.4033 107.202C29.66 107.202 12.4187 96.7378 8.92285 72.0774C4.70531 71.3233 1.50488 67.4634 1.50488 59.4309C1.50504 52.7834 5.5466 47.3948 10.5322 47.3948C10.7016 47.3948 10.87 47.401 11.0371 47.4133C17.0895 31.5679 32.4311 20.3129 50.4033 20.3127Z" fill="#FDFDFD"/>
<g clip-path="url(#clip0_155_6292)">
<path d="M96.6738 48.7959C95.4379 47.7039 93.9112 47.1761 92.13 47.1579C92.9479 42.3347 93.4386 31.1959 87.877 21.9682C85.9868 18.8195 80.6978 13.4321 77.8624 11.3937C76.2812 10.2652 74.6818 9.246 73.1369 8.28137C72.6098 7.95375 72.0827 7.62614 71.5556 7.28033C71.8828 7.15293 72.1372 6.86172 72.2281 6.4977C72.3372 6.00629 72.1009 5.49667 71.6647 5.26006C64.1765 1.31053 55.2887 0.382295 47.2189 2.65737C45.4378 2.34796 42.8387 1.51073 42.2389 0.5279C41.9663 0.0728849 41.3847 -0.127322 40.8758 0.0728849C40.3669 0.273092 40.076 0.80091 40.1851 1.32873C40.4032 2.42077 40.7485 3.5128 41.2393 4.53204C39.6398 5.00525 37.8405 5.02345 35.9684 5.04165C32.915 5.07806 29.7707 5.09626 27.2443 7.20753C26.899 7.49874 26.7536 7.97195 26.899 8.40877C26.9535 8.57257 27.0444 8.71818 27.1534 8.84558C24.2999 10.3562 21.5918 12.1399 19.0473 14.1966C18.7746 14.415 18.611 14.7608 18.6292 15.1248C18.6292 15.2158 18.6474 15.3068 18.6837 15.3978C16.8662 16.5262 15.0487 18.2735 13.2675 20.6578C11.2864 23.3151 9.35984 26.7732 7.97852 30.1585C6.12464 34.6723 7.45143 43.2448 8.21479 47.1761C6.32457 47.1215 4.70697 47.6493 3.39835 48.7595C0.363077 51.3986 -0.127656 56.7678 0.0177461 60.8084C0.235849 67.215 3.52557 71.7651 8.32384 72.4568C11.7408 96.2632 25.8448 108.33 50.236 108.33C74.6272 108.33 88.7494 96.245 92.1664 72.3839C96.7647 71.4739 99.8182 67.033 100.036 60.8084C100.182 56.8042 99.7091 51.4714 96.6738 48.7959ZM97.8007 60.7174C97.619 66.1411 94.9835 69.8905 91.0759 70.2727C90.5488 70.3273 90.1307 70.7277 90.058 71.2373C88.6404 82.0667 84.969 90.4754 79.1529 96.2086C72.5007 102.761 62.777 106.073 50.236 106.073C37.6951 106.073 27.9895 102.761 21.3373 96.2086C15.5031 90.4754 11.8317 82.0849 10.414 71.2555C10.3413 70.7095 9.88692 70.3091 9.34166 70.2727C5.23405 70.1089 2.43506 66.3413 2.2533 60.6992C2.07155 55.6758 3.01667 52.0357 4.88872 50.4158C5.70661 49.706 6.70625 49.3602 7.94216 49.3602C8.19662 49.3602 8.46925 49.3784 8.74188 49.4148C8.92363 49.797 9.32349 50.07 9.75969 50.0518C10.2868 50.0518 10.723 49.6696 10.832 49.16C11.7044 44.9192 16.1574 40.9697 17.5024 39.8594C17.9386 39.4954 18.3929 39.1314 18.8473 38.7674C21.3737 36.7289 23.9909 34.6177 25.7176 31.651C25.8085 31.4872 25.9175 31.3052 26.0084 31.1413C26.6082 30.0675 27.2261 28.9573 28.044 28.8299C28.3712 28.7753 28.6438 28.5751 28.8074 28.302C28.9528 28.0472 29.0073 27.756 28.9346 27.483C30.2069 27.7742 31.5518 27.8652 32.8423 27.7196C33.2058 27.6832 33.533 27.4648 33.6965 27.1372C33.8783 26.8096 33.8783 26.4274 33.7147 26.0998C33.5693 25.8268 33.4966 25.4992 33.4602 25.1897C34.1509 25.3171 34.8597 25.3353 35.5504 25.2443C35.9139 25.1897 36.2411 24.9713 36.4046 24.6437C36.4773 24.5163 36.5137 24.3889 36.5137 24.2433C37.1317 24.4981 37.7496 24.7165 38.2585 24.7893C38.6038 24.8439 38.9674 24.7165 39.2218 24.4617C39.4217 24.2615 39.5308 23.9885 39.549 23.6973C43.1477 24.8803 46.9645 24.9167 50.6722 24.9531C53.653 24.9895 56.7428 25.0259 59.6145 25.663C63.6494 26.573 67.4662 28.7207 70.8286 30.6135C76.3175 33.6894 80.7705 36.3831 84.042 40.5875C86.0777 43.1902 88.0042 46.3207 89.4583 49.4148C89.64 49.797 90.0035 50.0336 90.4215 50.0518C90.4397 50.0518 90.4579 50.0518 90.4761 50.0518C90.8941 50.0518 91.2576 49.8334 91.4939 49.4512C91.4939 49.4512 91.5121 49.4148 91.5302 49.3966C93.0388 49.2874 94.2383 49.6332 95.1653 50.4522C97.0192 52.0721 97.9461 55.7122 97.7644 60.6992L97.8007 60.7174Z" fill="#3B9BD5"/>
<path d="M6.25233 56.9133C6.39774 56.5311 6.21598 56.0943 5.8343 55.9487C5.45262 55.8031 5.01642 55.9851 4.87101 56.3673C4.79831 56.5493 3.08984 61.0267 5.36175 66.2685C5.48897 66.5415 5.7616 66.7235 6.05241 66.7235C6.14328 66.7235 6.25233 66.7053 6.34321 66.6689C6.72489 66.5051 6.88847 66.0683 6.72489 65.686C4.70744 61.0267 6.23416 56.968 6.25233 56.9133Z" fill="#3B9BD5"/>
<path d="M94.1114 55.6029C93.5298 55.8213 93.2572 56.4765 93.4753 57.0407C93.4753 57.0771 94.9475 60.9721 93.0391 65.4494C92.8391 65.9226 92.9118 66.5051 93.3117 66.8145C93.5298 66.9965 93.7842 67.0875 94.0387 67.0875C94.4749 67.0875 94.8748 66.8327 95.0565 66.4141C97.4011 61.0267 95.6381 56.4219 95.5654 56.2217C95.3473 55.6575 94.693 55.3663 94.1296 55.5847L94.1114 55.6029Z" fill="#3B9BD5"/>
<path d="M81.4615 48.3954C79.4441 47.8494 77.8628 47.1214 77.3539 46.4844C74.4822 42.9898 70.2292 41.1152 65.7036 41.3154C61.2143 41.5338 57.143 43.8453 54.6167 47.5764C51.2179 46.1386 48.2553 46.8666 46.5287 47.5764C44.0205 43.8453 39.9492 41.5156 35.4417 41.2972C30.9161 41.0788 26.6631 42.9534 23.7914 46.4662C23.2825 47.085 21.7012 47.813 19.6838 48.3772C18.9386 48.5774 18.4297 49.2327 18.4297 50.0153V54.6928C18.4297 55.4391 18.9568 56.1125 19.6838 56.2035C20.1927 56.2581 20.6107 56.6585 20.6834 57.1499C21.7194 64.3392 27.7718 69.763 34.7511 69.763C38.6769 69.763 42.4574 68.1067 45.1292 65.2492C47.8373 62.3371 49.1823 58.5332 48.9096 54.529C48.8551 53.8192 48.746 53.0912 48.6006 52.3996C49.5458 51.9992 50.9271 51.7443 52.5447 52.3996C52.3811 53.1094 52.272 53.8192 52.2175 54.5472C51.9449 58.5332 53.2899 62.3371 55.998 65.2674C58.6697 68.1431 62.4684 69.7812 66.3761 69.7812C73.3554 69.7812 79.4077 64.3574 80.4437 57.1681C80.5164 56.6767 80.9345 56.2763 81.4434 56.2217C82.1704 56.1307 82.6975 55.4573 82.6975 54.711V50.0335C82.6975 49.2691 82.1704 48.6138 81.4434 48.3954H81.4615ZM77.1176 54.1104C78.0264 61.2451 71.9922 67.2877 64.8675 66.3776C60.0147 65.7588 56.0889 61.8275 55.4709 56.9679C54.5621 49.8333 60.5963 43.7907 67.721 44.7007C72.5738 45.3195 76.4997 49.2509 77.1176 54.1104ZM33.4425 44.7007C40.5672 43.7907 46.6014 49.8333 45.6926 56.9679C45.0746 61.8275 41.1488 65.7588 36.296 66.3776C29.1713 67.2877 23.1371 61.2451 24.0458 54.1104C24.6638 49.2509 28.5897 45.3195 33.4425 44.7007Z" fill="#3B9BD5"/>
<path d="M32.4612 40.6419C32.6611 40.6419 32.861 40.6419 33.0791 40.6055L39.2042 39.7865C42.1667 39.3861 43.6753 37.6934 43.5844 36.292C43.5481 35.7823 43.2027 34.1443 40.0766 34.1443C36.1507 34.1443 29.8984 36.4012 29.8984 39.0585C29.8984 39.4043 30.062 39.7501 30.3528 40.0049C30.8072 40.4053 31.6251 40.6419 32.4793 40.6419H32.4612Z" fill="#3B9BD5"/>
<path d="M60.8513 39.7865L66.9764 40.6055C67.1763 40.6237 67.3944 40.6419 67.5943 40.6419C68.4486 40.6419 69.2483 40.4053 69.7208 40.0049C70.0116 39.7501 70.1752 39.4043 70.1752 39.0585C70.1752 36.4012 63.9229 34.1443 59.9971 34.1443C56.8709 34.1443 56.5256 35.7823 56.4892 36.292C56.3984 37.6934 57.9069 39.4043 60.8695 39.7865H60.8513Z" fill="#3B9BD5"/>
<path d="M64.8861 80.8835C62.6142 79.8642 62.5415 77.7894 62.5415 77.6802C62.5415 77.0613 62.0326 76.5699 61.4328 76.5699C60.8149 76.5699 60.3241 77.0795 60.3241 77.6802C60.3241 77.753 60.3241 78.4446 60.6513 79.3546C60.3241 79.6822 59.6153 80.3192 58.4702 80.9563C56.9254 81.7935 54.2354 82.8127 50.2187 82.8127C46.2019 82.8127 43.403 81.7935 41.7854 80.9381C40.5494 80.2828 39.7679 79.6276 39.4226 79.3C39.7679 78.1534 39.7861 77.2433 39.7861 77.1705C39.7861 76.5517 39.2953 76.0603 38.6774 76.0603C38.0594 76.0603 37.5687 76.5517 37.5687 77.1705C37.5687 77.2979 37.5142 80.119 35.1332 81.4659C34.697 81.7207 34.4425 82.2485 34.5879 82.7399C34.7334 83.2677 35.1877 83.5772 35.6603 83.5772C35.842 83.5772 36.0238 83.5226 36.2055 83.4316C37.2052 82.8855 37.914 82.1575 38.4411 81.4113C40.0405 82.7217 43.7846 85.0696 50.255 85.0696C56.7254 85.0696 60.3605 82.6853 61.8509 81.3567C62.3779 81.9573 63.0868 82.5215 64.0501 82.9583C64.1955 83.0311 64.359 83.0493 64.5044 83.0493C65.0497 83.0493 65.5768 82.6307 65.6313 81.9755C65.6677 81.5205 65.3769 81.1019 64.9588 80.9017L64.8861 80.8835Z" fill="#3B9BD5"/>
<path d="M52.5086 87.0355C50.0186 86.0162 47.5831 87.0173 47.4741 87.0537C46.9106 87.2903 46.638 87.9455 46.8743 88.5097C47.1106 89.0739 47.7649 89.347 48.3283 89.1103C48.3283 89.1103 50.055 88.4187 51.6907 89.1103C51.8361 89.1649 51.9815 89.2013 52.1269 89.2013C52.6722 89.2013 53.1811 88.8009 53.2538 88.1457C53.2902 87.6543 52.963 87.2175 52.5086 87.0173V87.0355Z" fill="#3B9BD5"/>
<path d="M37.2232 51.8718C38.4046 51.981 39.5497 52.3996 40.513 53.0731C40.6402 53.1641 40.7856 53.2005 40.931 53.2005C41.1673 53.2005 41.4036 53.0913 41.549 52.8911C41.7852 52.5453 41.6944 52.0902 41.3672 51.8536C40.1858 51.0164 38.7863 50.5068 37.3505 50.3794C36.9506 50.343 36.5871 50.6524 36.5508 51.0528C36.5144 51.4714 36.8234 51.8172 37.2232 51.8536V51.8718Z" fill="#3B9BD5"/>
<path d="M29.3344 56.058C29.4798 56.058 29.6434 56.0216 29.7888 55.967C32.9876 54.5655 36.8226 54.4927 40.076 55.8032C40.5304 55.9852 41.0756 55.9124 41.4028 55.5302C41.9299 54.9113 41.6754 54.0377 40.9848 53.7465C37.1316 52.163 32.7332 52.2358 28.9164 53.8921C28.4802 54.0741 28.1894 54.5291 28.2257 54.9841C28.2802 55.6212 28.7892 56.0398 29.3526 56.0398L29.3344 56.058Z" fill="#3B9BD5"/>
<path d="M59.1062 53.2005C59.2516 53.2005 59.397 53.1641 59.5242 53.0731C60.5057 52.3997 61.6325 51.9811 62.8139 51.8719C63.232 51.8354 63.5228 51.4714 63.4864 51.071C63.4501 50.6524 63.0865 50.3612 62.6867 50.3976C61.2508 50.525 59.8513 51.0346 58.67 51.8719C58.3246 52.1085 58.2519 52.5635 58.4882 52.9093C58.6336 53.1095 58.8699 53.2187 59.1062 53.2187V53.2005Z" fill="#3B9BD5"/>
<path d="M59.0697 53.7647C58.3791 54.0377 58.1246 54.9295 58.6517 55.5483C58.9607 55.9306 59.5059 56.0034 59.9785 55.8214C63.2319 54.5109 67.0669 54.5837 70.2657 55.9852C70.4111 56.058 70.5565 56.0762 70.7201 56.0762C71.2653 56.0762 71.7743 55.6757 71.847 55.0205C71.8833 54.5473 71.5925 54.1105 71.1563 53.9285C67.3395 52.254 62.9411 52.1994 59.0879 53.7829L59.0697 53.7647Z" fill="#3B9BD5"/>
<path d="M54.4353 70.9096C54.9078 70.5092 54.9624 69.7994 54.5625 69.3262C54.1627 68.853 53.4538 68.7984 52.9994 69.217C52.9631 69.2534 52.0725 69.945 50.0369 69.945C48.0012 69.945 47.1288 69.2716 47.0743 69.217C46.6017 68.8166 45.9111 68.8712 45.5112 69.3444C45.1114 69.8176 45.1477 70.5092 45.6203 70.9278C45.7657 71.0552 47.147 72.1837 50.0369 72.1837C52.9267 72.1837 54.3081 71.0552 54.4535 70.9278L54.4353 70.9096Z" fill="#3B9BD5"/>
</g>
<defs>
<clipPath id="clip0_155_6292">
<rect width="100.055" height="108.33" fill="white"/>
</clipPath>
</defs>
</svg>
