<svg width="124" height="134" viewBox="0 0 124 134" fill="none" xmlns="http://www.w3.org/2000/svg">
<path d="M62.3477 25.126C84.5721 25.1261 103.547 39.0388 111.038 58.6299C117.066 58.8432 121.903 65.4255 121.903 73.5137C121.903 82.529 118.398 87.5363 113.638 88.9277C109.27 118.593 87.9685 132.605 62.3477 132.605C36.6888 132.605 15.3604 119.661 11.0361 89.1572C5.81976 88.224 1.86133 83.4488 1.86133 73.5137C1.8615 65.291 6.86124 58.625 13.0283 58.625C13.2367 58.625 13.4438 58.6334 13.6494 58.6484C21.1358 39.0475 40.116 25.126 62.3477 25.126Z" fill="#FDFDFD"/>
<g clip-path="url(#clip0_95_4885)">
<path d="M119.582 60.3585C118.054 59.0077 116.165 58.3548 113.962 58.3323C114.974 52.3662 115.581 38.588 108.701 27.1737C106.363 23.2789 99.8206 16.6149 96.3134 14.0934C94.3575 12.6976 92.379 11.4368 90.4681 10.2436C89.8161 9.83836 89.1641 9.43311 88.5121 9.00536C88.9168 8.84776 89.2315 8.48755 89.344 8.03728C89.4788 7.42942 89.1866 6.79904 88.647 6.50637C79.3844 1.62095 68.3906 0.472763 58.4086 3.28694C56.2054 2.90421 52.9904 1.8686 52.2485 0.65287C51.9113 0.0900341 51.1919 -0.157614 50.5624 0.0900342C49.9329 0.337682 49.5731 0.990572 49.708 1.64346C49.9778 2.99427 50.405 4.34508 51.012 5.60583C49.0336 6.19118 46.8078 6.21369 44.4922 6.2362C40.7152 6.28123 36.8258 6.30374 33.7008 8.9153C33.2736 9.27552 33.0938 9.86087 33.2736 10.4012C33.3411 10.6038 33.4535 10.7839 33.5884 10.9415C30.0587 12.8101 26.7089 15.0164 23.5614 17.5605C23.2241 17.8306 23.0218 18.2584 23.0443 18.7087C23.0443 18.8212 23.0668 18.9338 23.1117 19.0464C20.8635 20.4422 18.6153 22.6035 16.4121 25.5527C13.9615 28.8397 11.5784 33.1173 9.86977 37.3048C7.5766 42.8881 9.21779 53.4919 10.162 58.3548C7.8239 58.2873 5.823 58.9402 4.20429 60.3135C0.44978 63.5779 -0.157237 70.2194 0.02262 75.2174C0.292405 83.1421 4.36166 88.7705 10.2969 89.626C14.5236 119.074 31.9697 134 62.1406 134C92.3116 134 109.78 119.051 114.007 89.5359C119.695 88.4103 123.472 82.917 123.742 75.2174C123.921 70.2644 123.337 63.668 119.582 60.3585ZM120.976 75.1048C120.751 81.8138 117.492 86.4516 112.658 86.9244C112.006 86.9919 111.489 87.4872 111.399 88.1176C109.645 101.513 105.104 111.914 97.9096 119.006C89.6812 127.111 77.6533 131.208 62.1406 131.208C46.628 131.208 34.6226 127.111 26.3941 119.006C19.1774 111.914 14.636 101.536 12.8824 88.1401C12.7924 87.4647 12.2304 86.9694 11.5559 86.9244C6.47498 86.7218 3.01274 82.0615 2.78792 75.0823C2.5631 68.8686 3.73216 64.3659 6.04782 62.3622C7.05951 61.4842 8.29603 61.0564 9.82481 61.0564C10.1396 61.0564 10.4768 61.0789 10.814 61.124C11.0388 61.5968 11.5334 61.9345 12.073 61.9119C12.725 61.9119 13.2646 61.4392 13.3995 60.8088C14.4786 55.5632 19.9867 50.6777 21.6504 49.3044C22.19 48.8541 22.752 48.4039 23.3141 47.9536C26.4391 45.4321 29.6765 42.8205 31.8123 39.1509C31.9247 38.9482 32.0596 38.7231 32.172 38.5205C32.9139 37.1922 33.6783 35.8189 34.69 35.6613C35.0947 35.5937 35.4319 35.3461 35.6342 35.0084C35.8141 34.6932 35.8815 34.333 35.7916 33.9953C37.3654 34.3555 39.029 34.4681 40.6253 34.288C41.0749 34.2429 41.4796 33.9728 41.6819 33.5675C41.9068 33.1623 41.9067 32.6895 41.7044 32.2843C41.5246 31.9466 41.4346 31.5413 41.3897 31.1586C42.244 31.3162 43.1208 31.3387 43.9751 31.2261C44.4247 31.1586 44.8294 30.8884 45.0318 30.4832C45.1217 30.3256 45.1667 30.168 45.1667 29.9879C45.931 30.3031 46.6954 30.5732 47.3249 30.6633C47.7521 30.7308 48.2017 30.5732 48.5165 30.258C48.7638 30.0104 48.8987 29.6727 48.9212 29.3125C53.3726 30.7759 58.0939 30.8209 62.6802 30.8659C66.3673 30.9109 70.1892 30.956 73.7414 31.7439C78.7324 32.8696 83.4536 35.5262 87.6128 37.8676C94.4024 41.6724 99.9105 45.0043 103.957 50.205C106.475 53.4244 108.858 57.2967 110.657 61.124C110.882 61.5968 111.331 61.8894 111.849 61.9119C111.871 61.9119 111.893 61.9119 111.916 61.9119C112.433 61.9119 112.883 61.6418 113.175 61.169C113.175 61.169 113.197 61.124 113.22 61.1015C115.086 60.9664 116.57 61.3941 117.716 62.4072C120.01 64.4109 121.156 68.9136 120.931 75.0823L120.976 75.1048Z" fill="#3B9BD5"/>
<path d="M7.73404 70.3996C7.91389 69.9269 7.68907 69.3865 7.21695 69.2064C6.74482 69.0263 6.20525 69.2514 6.0254 69.7242C5.93547 69.9494 3.82215 75.4877 6.63241 81.9715C6.78979 82.3092 7.12702 82.5344 7.48673 82.5344C7.59914 82.5344 7.73404 82.5119 7.84645 82.4668C8.31857 82.2642 8.52091 81.7239 8.31857 81.2511C5.82306 75.4877 7.71155 70.4672 7.73404 70.3996Z" fill="#3B9BD5"/>
<path d="M116.412 68.7785C115.693 69.0486 115.356 69.8591 115.626 70.557C115.626 70.6021 117.447 75.4199 115.086 80.9583C114.839 81.5436 114.929 82.264 115.423 82.6468C115.693 82.8719 116.008 82.9845 116.323 82.9845C116.862 82.9845 117.357 82.6693 117.581 82.1515C120.482 75.4875 118.301 69.7916 118.211 69.5439C117.941 68.846 117.132 68.4858 116.435 68.756L116.412 68.7785Z" fill="#3B9BD5"/>
<path d="M100.765 59.8632C98.2692 59.1878 96.3133 58.2873 95.6838 57.4993C92.1316 53.1767 86.8708 50.8579 81.2728 51.1055C75.7197 51.3757 70.6837 54.2349 67.5587 58.8501C63.3546 57.0716 59.69 57.9721 57.5542 58.8501C54.4517 54.2349 49.4157 51.3532 43.8401 51.083C38.2421 50.8128 32.9813 53.1317 29.4291 57.4768C28.7996 58.2423 26.8436 59.1428 24.3481 59.8407C23.4264 60.0884 22.7969 60.8988 22.7969 61.8669V67.6529C22.7969 68.5759 23.4489 69.4089 24.3481 69.5215C24.9776 69.589 25.4947 70.0843 25.5847 70.6922C26.8661 79.585 34.3527 86.294 42.9858 86.294C47.8419 86.294 52.5182 84.2453 55.8231 80.7107C59.1729 77.1085 60.8366 72.4032 60.4993 67.4503C60.4319 66.5722 60.297 65.6717 60.1171 64.8162C61.2862 64.3209 62.9949 64.0057 64.9958 64.8162C64.7934 65.6942 64.6585 66.5722 64.5911 67.4728C64.2538 72.4032 65.9175 77.1085 69.2673 80.7332C72.5722 84.2903 77.271 86.3165 82.1046 86.3165C90.7377 86.3165 98.2243 79.6075 99.5058 70.7147C99.5957 70.1068 100.113 69.6116 100.742 69.544C101.642 69.4314 102.294 68.5984 102.294 67.6754V61.8894C102.294 60.9439 101.642 60.1334 100.742 59.8632H100.765ZM95.3915 66.9325C96.5156 75.7577 89.0516 83.2322 80.2386 82.1065C74.2359 81.3411 69.3798 76.4782 68.6154 70.4671C67.4913 61.6418 74.9553 54.1673 83.7683 55.293C89.771 56.0585 94.6271 60.9214 95.3915 66.9325ZM41.3671 55.293C50.1801 54.1673 57.6441 61.6418 56.52 70.4671C55.7556 76.4782 50.8995 81.3411 44.8968 82.1065C36.0838 83.2322 28.6197 75.7577 29.7438 66.9325C30.5082 60.9214 35.3644 56.0585 41.3671 55.293Z" fill="#3B9BD5"/>
<path d="M40.1529 50.2724C40.4002 50.2724 40.6475 50.2724 40.9173 50.2274L48.4937 49.2143C52.1583 48.719 54.0243 46.6252 53.9119 44.8917C53.867 44.2613 53.4398 42.2351 49.5729 42.2351C44.7167 42.2351 36.9829 45.0268 36.9829 48.3137C36.9829 48.7415 37.1852 49.1692 37.545 49.4844C38.107 49.9797 39.1187 50.2724 40.1754 50.2724H40.1529Z" fill="#3B9BD5"/>
<path d="M75.2701 49.2143L82.8466 50.2274C83.0939 50.2499 83.3637 50.2724 83.611 50.2724C84.6676 50.2724 85.6569 49.9797 86.2414 49.4844C86.6011 49.1692 86.8034 48.7415 86.8034 48.3137C86.8034 45.0268 79.0696 42.2351 74.2135 42.2351C70.3465 42.2351 69.9194 44.2613 69.8744 44.8917C69.762 46.6252 71.628 48.7415 75.2926 49.2143H75.2701Z" fill="#3B9BD5"/>
<path d="M80.2609 100.05C77.4506 98.789 77.3607 96.2225 77.3607 96.0874C77.3607 95.322 76.7312 94.7141 75.9893 94.7141C75.2249 94.7141 74.6179 95.3445 74.6179 96.0874C74.6179 96.1775 74.6179 97.033 75.0225 98.1587C74.6179 98.5639 73.7411 99.3519 72.3247 100.14C70.4137 101.175 67.0864 102.436 62.1178 102.436C57.1493 102.436 53.687 101.175 51.6861 100.117C50.1574 99.3069 49.1906 98.4964 48.7635 98.0911C49.1906 96.6728 49.2131 95.5471 49.2131 95.4571C49.2131 94.6916 48.6061 94.0837 47.8417 94.0837C47.0773 94.0837 46.4703 94.6916 46.4703 95.4571C46.4703 95.6147 46.4028 99.1042 43.4577 100.77C42.9181 101.085 42.6034 101.738 42.7832 102.346C42.9631 102.999 43.5251 103.382 44.1097 103.382C44.3345 103.382 44.5593 103.314 44.7841 103.202C46.0206 102.526 46.8974 101.626 47.5494 100.703C49.5279 102.324 54.1592 105.228 62.1628 105.228C70.1664 105.228 74.6628 102.279 76.5064 100.635C77.1583 101.378 78.0351 102.076 79.2267 102.616C79.4065 102.706 79.6089 102.729 79.7887 102.729C80.4632 102.729 81.1152 102.211 81.1826 101.401C81.2276 100.838 80.8679 100.32 80.3508 100.072L80.2609 100.05Z" fill="#3B9BD5"/>
<path d="M64.9508 107.659C61.8708 106.398 58.8582 107.637 58.7233 107.682C58.0264 107.974 57.6891 108.785 57.9814 109.483C58.2737 110.181 59.083 110.518 59.78 110.226C59.78 110.226 61.9158 109.37 63.9392 110.226C64.119 110.293 64.2989 110.338 64.4787 110.338C65.1532 110.338 65.7827 109.843 65.8726 109.033C65.9176 108.425 65.5129 107.884 64.9508 107.637V107.659Z" fill="#3B9BD5"/>
<path d="M46.0434 64.1632C47.5048 64.2983 48.9211 64.8161 50.1127 65.6491C50.2701 65.7616 50.4499 65.8067 50.6298 65.8067C50.9221 65.8067 51.2143 65.6716 51.3942 65.4239C51.6864 64.9962 51.574 64.4333 51.1694 64.1407C49.708 63.105 47.9769 62.4747 46.2008 62.3171C45.7062 62.2721 45.2566 62.6548 45.2116 63.1501C45.1666 63.6679 45.5488 64.0956 46.0434 64.1407V64.1632Z" fill="#3B9BD5"/>
<path d="M36.2863 69.3415C36.4662 69.3415 36.6685 69.2965 36.8484 69.2289C40.8052 67.4954 45.5489 67.4053 49.5732 69.0263C50.1353 69.2515 50.8098 69.1614 51.2144 68.6886C51.8664 67.9232 51.5517 66.8425 50.6973 66.4823C45.9311 64.5236 40.4905 64.6137 35.7692 66.6624C35.2297 66.8875 34.87 67.4504 34.9149 68.0132C34.9824 68.8012 35.6119 69.319 36.3088 69.319L36.2863 69.3415Z" fill="#3B9BD5"/>
<path d="M73.1119 65.8068C73.2917 65.8068 73.4716 65.7618 73.629 65.6492C74.843 64.8162 76.2369 64.2984 77.6982 64.1633C78.2153 64.1183 78.575 63.668 78.53 63.1727C78.4851 62.6549 78.0354 62.2947 77.5408 62.3397C75.7648 62.4973 74.0336 63.1277 72.5723 64.1633C72.1451 64.456 72.0552 65.0188 72.3475 65.4466C72.5273 65.6942 72.8196 65.8293 73.1119 65.8293V65.8068Z" fill="#3B9BD5"/>
<path d="M73.0666 66.5048C72.2123 66.8425 71.8975 67.9457 72.5495 68.7111C72.9317 69.1839 73.6062 69.274 74.1907 69.0488C78.215 67.4279 82.9587 67.5179 86.9155 69.2515C87.0954 69.3415 87.2753 69.364 87.4776 69.364C88.1521 69.364 88.7816 68.8687 88.8715 68.0582C88.9164 67.4729 88.5567 66.9326 88.0172 66.7074C83.2959 64.6362 77.8553 64.5687 73.0891 66.5273L73.0666 66.5048Z" fill="#3B9BD5"/>
<path d="M67.3338 87.7124C67.9184 87.2171 67.9858 86.3391 67.4912 85.7538C66.9966 85.1684 66.1198 85.1009 65.5577 85.6187C65.5128 85.6637 64.4111 86.5192 61.8932 86.5192C59.3752 86.5192 58.296 85.6862 58.2286 85.6187C57.644 85.1234 56.7897 85.1909 56.2951 85.7763C55.8005 86.3616 55.8455 87.2171 56.43 87.7349C56.6099 87.8925 58.3185 89.2884 61.8932 89.2884C65.4678 89.2884 67.1764 87.8925 67.3563 87.7349L67.3338 87.7124Z" fill="#3B9BD5"/>
</g>
<defs>
<clipPath id="clip0_95_4885">
<rect width="123.764" height="134" fill="white"/>
</clipPath>
</defs>
</svg>
