<svg width="97" height="136" viewBox="0 0 97 136" fill="none" xmlns="http://www.w3.org/2000/svg">
<path d="M64.0851 36.6772C63.9554 36.4405 62.3603 33.9959 62.3376 34.0186C59.5818 36.8457 56.5958 38.7229 53.6487 39.9355C48.9055 41.884 44.2725 42.1109 40.7937 41.8548C40.8521 42.8437 40.4922 43.5245 40.087 43.9622C38.5405 45.6416 34.851 45.2525 32.04 44.6463C35.0325 49.4187 43.3809 58.8208 60.3372 52.8099C65.8261 50.8776 67.0873 44.9283 65.4565 39.8836C65.0999 38.7748 64.6362 37.7017 64.0786 36.6772H64.0851Z" fill="#3B9BD5" stroke="#3B9BD5" stroke-width="0.5" stroke-miterlimit="10"/>
<path d="M39.8567 39.206C44.8917 39.7734 53.5676 39.3746 60.5706 32.0669C56.9556 28.5265 51.9465 26.2797 46.3766 26.1338C38.2227 25.9198 32.3188 28.8345 28.7979 34.8097C32.0108 34.5633 37.3052 34.9037 39.8599 39.2028L39.8567 39.206Z" fill="#3B9BD5" stroke="#3B9BD5" stroke-width="0.5" stroke-miterlimit="10"/>
<path d="M48.5001 9.79034C27.2351 9.79034 10 27.0287 10 48.2904C10 69.5522 27.2383 86.7905 48.5001 86.7905C69.7619 86.7905 87.0002 69.5522 87.0002 48.2904C87.0002 27.0287 69.7619 9.79034 48.5001 9.79034ZM62.9988 71.4294C60.4408 70.0256 58.8424 70.8231 57.5391 71.7828C56.7675 72.3502 55.0978 73.6892 52.154 72.0584C51.6449 71.7763 49.7062 70.4568 46.9958 72.5771C46.7591 72.7619 46.5321 72.9013 46.3117 73.018C44.2335 72.5577 42.2007 71.893 40.2846 70.9787C39.0688 70.3984 37.9146 69.7078 36.7928 68.9654C37.3699 68.9589 37.8206 68.7968 38.1902 68.6347C39.6686 67.983 41.1989 68.2489 42.6124 69.4063C45.1769 71.3646 46.8758 69.831 47.3394 69.4679C49.7548 67.581 51.4537 68.7644 51.9011 69.014C55.1302 70.8004 57.0269 69.3026 57.8633 68.6898C59.1407 67.7496 60.6224 66.9942 63.216 68.6412C63.7315 68.9686 64.5745 69.4517 65.6736 69.7759C64.8403 70.4114 63.9488 70.9658 62.9988 71.4294ZM67.8523 67.8047C65.5536 67.7788 64.0071 66.7445 63.5046 66.4236C60.8915 64.7636 59.2218 65.2629 57.5391 66.5014C56.7675 67.0688 55.0978 68.4078 52.154 66.777C51.6547 66.5014 49.7126 65.1721 46.9958 67.2957C44.963 68.8843 43.5332 67.6718 42.9496 67.2276C41.3642 65.9405 39.6491 65.6455 37.9924 66.3749C37.4186 66.6213 36.3778 67.1531 34.157 65.6811C34.1181 65.6552 33.2168 64.8252 31.7935 64.8576C29.0344 62.0597 26.7617 58.7625 25.1472 55.1767C29.9876 55.1021 34.8281 55.0308 39.6686 54.9562C34.6433 52.5376 30.3475 48.2613 28.2401 43.1095C28.0521 42.6492 28.1558 42.1207 28.5092 41.7608C28.8626 41.3977 29.4008 41.268 29.8904 41.4236C33.528 42.5714 37.438 42.9701 38.0962 42.2634C38.1869 42.1628 38.1869 41.7284 37.8044 40.9406C35.2917 35.7467 26.8687 37.6563 26.7844 37.6758C26.2949 37.7925 25.7794 37.6304 25.4552 37.2575C25.1309 36.8879 25.0531 36.3692 25.2509 35.925C28.9955 27.5863 36.3227 23.3132 46.4381 23.5791C52.9742 23.7509 59.2672 26.5877 63.5273 31.3731C63.5856 31.4379 63.644 31.506 63.7024 31.5741C66.5554 34.8843 67.9041 39.1444 68.1668 43.4564C68.3094 45.7778 68.3613 48.1218 68.0857 50.4335C67.9171 51.8276 67.8296 53.2865 67.139 54.5445C69.6192 54.5056 72.0994 54.4699 74.5764 54.431C73.3963 59.2844 71.2273 64.2319 67.8458 67.8047H67.8523Z" fill="#3B9BD5" stroke="#3B9BD5" stroke-width="0.5" stroke-miterlimit="10"/>
<path d="M10 116.981V115.829H22.0704V112.311H13.0898V102.79H14.4876V106.28H31.0483V102.79H32.4488V112.311H23.4682V115.829H35.5386V116.981H10ZM31.051 111.157V107.402H14.4876V111.157H31.0483H31.051ZM22.8878 129.989C21.6045 129.989 20.4438 129.845 19.4029 129.56C18.3648 129.276 17.4793 128.886 16.7491 128.394C16.0189 127.9 15.463 127.32 15.0707 126.651C14.6838 125.98 14.4876 125.272 14.4876 124.524C14.4876 123.775 14.6838 123.065 15.0707 122.393C15.4603 121.725 16.0189 121.142 16.7491 120.65C17.4793 120.158 18.3648 119.769 19.4029 119.484C20.4438 119.197 21.6045 119.056 22.8878 119.056C24.1711 119.056 25.3319 119.199 26.3727 119.484C27.4108 119.771 28.2963 120.158 29.0266 120.65C29.7568 121.145 30.3126 121.725 30.705 122.393C31.0919 123.065 31.2881 123.775 31.2881 124.524C31.2881 125.272 31.0919 125.982 30.705 126.651C30.3153 127.32 29.7568 127.903 29.0266 128.394C28.2963 128.886 27.4108 129.276 26.3727 129.56C25.3319 129.845 24.1711 129.989 22.8878 129.989ZM22.8878 128.837C24.0158 128.837 25.0104 128.723 25.8741 128.497C26.7405 128.27 27.468 127.958 28.062 127.566C28.6533 127.17 29.1056 126.712 29.4162 126.192C29.7268 125.67 29.8821 125.115 29.8821 124.521C29.8821 123.927 29.7268 123.371 29.4162 122.849C29.1056 122.327 28.6533 121.868 28.062 121.476C27.468 121.084 26.7405 120.772 25.8741 120.545C25.0104 120.318 24.0131 120.205 22.8878 120.205C21.7625 120.205 20.7653 120.318 19.9015 120.545C19.0351 120.772 18.3049 121.084 17.7136 121.476C17.1224 121.871 16.6673 122.33 16.3594 122.849C16.0488 123.371 15.8935 123.93 15.8935 124.521C15.8935 125.112 16.0488 125.67 16.3594 126.192C16.6673 126.715 17.1224 127.173 17.7136 127.566C18.3049 127.958 19.0351 128.27 19.9015 128.497C20.7653 128.723 21.7625 128.837 22.8878 128.837Z" fill="#3B9BD5" stroke="#3B9BD5" stroke-miterlimit="10"/>
<path d="M52.7806 117.514C51.9059 117.08 51.0449 116.569 50.2003 115.978C49.3556 115.387 48.5627 114.737 47.8243 114.027C47.086 113.317 46.4075 112.56 45.7835 111.751C45.3939 111.239 45.0452 110.706 44.7345 110.154C44.364 110.922 43.9471 111.651 43.4812 112.342C42.6256 113.624 41.612 114.776 40.435 115.801C39.2606 116.826 37.9609 117.694 36.5414 118.404L35.6667 117.398C38.465 116.097 40.6666 114.226 42.2714 111.778C43.8735 109.336 44.7836 106.495 44.9961 103.263H46.3966C46.3367 104.979 46.056 106.603 45.5519 108.142C45.4729 108.38 45.3857 108.615 45.2904 108.852C45.6773 109.524 46.1241 110.184 46.6309 110.833C47.2549 111.601 47.9306 112.331 48.6717 113.022C49.4101 113.712 50.203 114.342 51.0477 114.914C51.8923 115.486 52.7642 115.958 53.6579 116.334L52.7833 117.517L52.7806 117.514ZM41.9335 120.352V127.566H59.9819V128.748H40.5358V120.352H41.9335ZM57.854 109.797H50.7997V108.615H57.854V102.79H59.2517V122.067H57.854V109.797Z" fill="#3B9BD5" stroke="#3B9BD5" stroke-miterlimit="10"/>
<path d="M61.3333 115.679C62.5948 115.207 63.7828 114.605 64.889 113.875C65.9979 113.146 66.9734 112.298 67.818 111.333C68.6627 110.366 69.3493 109.283 69.8752 108.081C70.3029 107.076 70.5918 106.004 70.7498 104.86H62.791V103.708H78.7386V104.86H72.1775C72.0604 106.122 71.7716 107.294 71.3029 108.377C71.2239 108.554 71.1476 108.722 71.0713 108.88C71.4582 109.41 71.9051 109.913 72.4119 110.388C73.0712 110.98 73.796 111.527 74.5834 112.03C75.3709 112.532 76.2046 112.98 77.0902 113.375C77.9757 113.77 78.853 114.085 79.7304 114.32L78.943 115.503C78.1283 115.246 77.2945 114.917 76.4499 114.511C75.6052 114.107 74.7932 113.643 74.014 113.121C73.2347 112.599 72.51 112.021 71.8288 111.391C71.322 110.919 70.8751 110.435 70.4855 109.944C70.0795 110.654 69.6027 111.314 69.0578 111.925C68.1423 112.969 67.0933 113.9 65.908 114.718C64.7228 115.536 63.4694 116.213 62.1479 116.743L61.3333 115.679ZM76.4635 129.574C75.221 129.574 74.1039 129.411 73.1121 129.085C72.1203 128.759 71.2757 128.32 70.5754 127.77C69.8752 127.217 69.3411 126.571 68.9733 125.833C68.6027 125.093 68.4175 124.311 68.4175 123.482C68.4175 122.653 68.6027 121.871 68.9733 121.133C69.3439 120.393 69.8779 119.749 70.5754 119.197C71.2757 118.644 72.1203 118.208 73.1121 117.882C74.1039 117.555 75.221 117.395 76.4635 117.395C77.7059 117.395 78.8258 117.558 79.8176 117.882C80.8067 118.208 81.654 118.644 82.3543 119.197C83.0545 119.749 83.5886 120.393 83.9564 121.133C84.327 121.871 84.5095 122.656 84.5095 123.482C84.5095 124.308 84.327 125.093 83.9564 125.833C83.5858 126.571 83.0518 127.217 82.3543 127.77C81.654 128.323 80.8067 128.762 79.8176 129.085C78.8258 129.411 77.7087 129.574 76.4635 129.574ZM76.4635 128.422C77.5316 128.422 78.4798 128.289 79.3081 128.021C80.1364 127.756 80.8285 127.397 81.3925 126.944C81.9565 126.491 82.3843 125.969 82.6758 125.377C82.9673 124.786 83.1117 124.153 83.1117 123.485C83.1117 122.816 82.9646 122.183 82.6758 121.592C82.3843 121.001 81.9565 120.479 81.3925 120.026C80.8312 119.572 80.1364 119.21 79.3081 118.945C78.4798 118.68 77.5343 118.547 76.4635 118.547C75.3927 118.547 74.4472 118.68 73.6216 118.945C72.7933 119.21 72.1012 119.572 71.5345 120.026C70.9732 120.479 70.5454 121.001 70.2512 121.592C69.9596 122.183 69.8152 122.816 69.8152 123.485C69.8152 124.153 69.9624 124.786 70.2512 125.377C70.5427 125.969 70.9705 126.491 71.5345 126.944C72.0985 127.397 72.7933 127.756 73.6216 128.021C74.4472 128.287 75.3954 128.422 76.4635 128.422ZM87.9808 110.062H84.1607V117.395H82.7603V102.79H84.1607V108.88H87.9808V110.062Z" fill="#3B9BD5" stroke="#3B9BD5" stroke-miterlimit="10"/>
</svg>
